<svg width="24" height="24" viewBox="0 0 24 24" fill="none" xmlns="http://www.w3.org/2000/svg">
<path d="M23.9471 1.02856C24.0017 0.892261 24.015 0.74295 23.9855 0.599136C23.956 0.455321 23.885 0.323327 23.7812 0.219518C23.6774 0.115708 23.5454 0.0446476 23.4015 0.0151464C23.2577 -0.0143547 23.1084 -0.000999479 22.9721 0.0535565L1.15162 8.78206H1.15012L0.472125 9.05206C0.34371 9.10328 0.231953 9.189 0.149198 9.29975C0.0664433 9.4105 0.0159116 9.54197 0.00318483 9.67964C-0.00954198 9.81731 0.0160314 9.95581 0.0770801 10.0799C0.138129 10.2039 0.232277 10.3087 0.349125 10.3826L0.964125 10.7726L0.965625 10.7756L8.45812 15.5426L13.2251 23.0351L13.2281 23.0381L13.6181 23.6531C13.6923 23.7695 13.7971 23.8631 13.921 23.9238C14.045 23.9845 14.1833 24.0098 14.3207 23.9969C14.4581 23.984 14.5892 23.9335 14.6998 23.8508C14.8103 23.7682 14.8959 23.6567 14.9471 23.5286L23.9471 1.02856ZM21.1976 3.86356L9.95662 15.1046L9.63412 14.5976C9.57503 14.5045 9.49616 14.4256 9.40312 14.3666L8.89612 14.0441L20.1371 2.80306L21.9041 2.09656L21.1991 3.86356H21.1976Z" fill="#EEEEEE"/>
</svg>
