<svg width="33" height="31" viewBox="0 0 33 31" fill="none" xmlns="http://www.w3.org/2000/svg">
<path fill-rule="evenodd" clip-rule="evenodd" d="M1.83174 1.15134C1.50046 1.32689 1.16033 1.74258 1.06451 2.08905C1.01973 2.25091 0.99847 5.66066 1.00009 12.4181C1.00215 20.6763 1.01831 22.5497 1.08912 22.749C1.22262 23.1245 1.49077 23.4323 1.83878 23.6094L2.15572 23.7706H7.42395C12.0877 23.7706 12.6922 23.7819 12.6922 23.8688C12.6922 23.9229 12.5286 24.6236 12.3287 25.4258L11.9653 26.8844L11.1818 26.8859C10.2487 26.8879 9.8808 26.9614 9.63119 27.1963C9.33629 27.4737 9.2676 27.715 9.2676 28.4737C9.2676 29.2438 9.33525 29.4723 9.65154 29.7711L9.8576 29.9657L16.4332 29.9829L23.0088 30L23.2237 29.8531C23.6458 29.5647 23.7067 29.4165 23.7312 28.6175C23.757 27.78 23.6917 27.497 23.4091 27.2195C23.1463 26.9616 22.776 26.8844 21.8021 26.8844H21.0325L20.9675 26.6411C20.777 25.9286 20.3178 23.9821 20.3173 23.8852C20.3168 23.7796 20.6412 23.7717 25.6742 23.7555L31.0317 23.7381L31.3108 23.5411C31.6351 23.3123 31.856 23.0085 31.9483 22.6643C31.9913 22.504 32.0078 18.9458 31.9966 12.241L31.9797 2.06103L31.7843 1.74375C31.6768 1.56931 31.4635 1.33804 31.3103 1.2299L31.0316 1.03328L16.5745 1.01661L2.11727 1L1.83174 1.15134ZM30.8442 2.20971L30.9781 2.38065V11.0322V19.6837H16.5045H2.03075V11.0322V2.38065L2.1647 2.20971L2.29858 2.03878H16.5045H30.7103L30.8442 2.20971ZM30.9781 21.5562C30.9781 22.3023 30.9639 22.4089 30.8442 22.5617L30.7103 22.7326H16.5045H2.29858L2.1647 22.5617C2.04497 22.4089 2.03075 22.3023 2.03075 21.5562V20.7216H16.5045H30.9781V21.5562ZM19.1922 23.8456C19.2177 23.8869 19.405 24.5876 19.6085 25.4025L19.9785 26.8844H16.5045H13.0304L13.4004 25.4025C13.6039 24.5876 13.7912 23.8869 13.8167 23.8456C13.8827 23.7383 19.1262 23.7383 19.1922 23.8456ZM22.7075 28.4575V28.9602H16.5045H10.3014V28.4575V27.9547H16.5045H22.7075V28.4575Z" fill="white" stroke="white" stroke-width="0.2"/>
</svg>
