<svg width="24" height="31" viewBox="0 0 24 31" fill="none" xmlns="http://www.w3.org/2000/svg">
<path fill-rule="evenodd" clip-rule="evenodd" d="M11.4286 0.0449066C10.33 0.233626 9.39504 0.861116 8.86203 1.76729L8.66463 2.10298L5.71995 2.12327L2.77519 2.14356L2.32468 2.31819C1.18222 2.76091 0.349919 3.69798 0.105339 4.81685C-0.0380105 5.47284 -0.0336786 27.6555 0.109937 28.3177C0.379508 29.5604 1.38175 30.5818 2.6447 30.9008C2.98705 30.9873 4.16676 30.9998 12.0052 30.9998C21.894 30.9998 21.33 31.0224 22.1611 30.5939C22.6637 30.3347 23.2425 29.789 23.5228 29.3099C23.6403 29.1092 23.7959 28.7191 23.8687 28.4432C23.9982 27.952 24.001 27.704 23.9999 16.5932C23.9989 7.10157 23.9834 5.17483 23.9052 4.81685C23.6606 3.69798 22.8283 2.76091 21.6858 2.31819L21.2353 2.14356L18.2906 2.12327L15.3459 2.10298L15.1317 1.73498C14.4388 0.544107 12.8208 -0.194288 11.4286 0.0449066ZM12.6947 1.67552C13.0525 1.79676 13.5262 2.14854 13.6905 2.41495C13.7716 2.5466 13.8979 2.81442 13.9712 3.01012C14.1873 3.58701 14.3568 3.6614 15.4552 3.6614H16.353L16.324 4.25922C16.2806 5.15551 15.9624 5.66576 15.2403 5.99712L14.8376 6.18183L11.9993 6.18189L9.16086 6.18196L8.75307 5.98432C8.02626 5.63209 7.7297 5.15253 7.68652 4.25922L7.65753 3.6614H8.55534C9.65928 3.6614 9.82449 3.58785 10.0401 3.00075C10.461 1.85461 11.5776 1.29717 12.6947 1.67552ZM6.07402 4.17527C6.07402 4.8491 6.16925 5.26997 6.45302 5.84963C6.73692 6.42968 7.32638 7.02647 7.9129 7.32752C8.65717 7.70955 8.87316 7.73107 11.9795 7.7321C13.569 7.73268 14.9417 7.70509 15.1451 7.66851C15.7245 7.56432 16.4369 7.18637 16.8965 6.73932C17.6039 6.05115 17.9335 5.24379 17.9355 4.19459L17.9365 3.6614H19.3668C20.6443 3.6614 20.8361 3.67548 21.1613 3.7935C21.5926 3.95003 22.0295 4.3457 22.2286 4.7601L22.3682 5.05094V16.5596V28.0683L22.1671 28.4496C21.9441 28.8726 21.4942 29.2528 21.0712 29.3756C20.89 29.4283 18.3501 29.4487 11.9533 29.4487H3.08675L2.66743 29.2382C2.40046 29.1041 2.16854 28.9265 2.02906 28.7491C1.57902 28.177 1.60567 28.9886 1.62487 16.4229L1.64226 5.05094L1.79394 4.75235C2.0024 4.34208 2.43651 3.94376 2.8387 3.79363C3.13333 3.68369 3.35472 3.66773 4.62454 3.66476L6.07402 3.6614V4.17527ZM16.1704 14.1969C16.0971 14.2284 14.838 15.3898 13.3722 16.7779L10.7074 19.3017L9.80683 18.4433C7.89917 16.6248 7.85352 16.5874 7.5445 16.5874C7.17476 16.5874 6.91532 16.7273 6.78277 16.9982C6.64408 17.2815 6.64562 17.4125 6.79043 17.666C6.85461 17.7782 7.67625 18.5975 8.61645 19.4866C10.4522 21.2227 10.5434 21.2847 10.9883 21.1003C11.3142 20.9652 17.1865 15.3788 17.2745 15.1201C17.3776 14.817 17.2968 14.5554 17.0298 14.328C16.7895 14.1234 16.4589 14.0729 16.1704 14.1969Z" fill="white"/>
</svg>
