<svg width="38" height="38" viewBox="0 0 38 38" fill="none" xmlns="http://www.w3.org/2000/svg">
<path d="M24.9375 22.5625C30.1842 22.5625 34.4375 18.3092 34.4375 13.0625C34.4375 7.81579 30.1842 3.5625 24.9375 3.5625C19.6908 3.5625 15.4375 7.81579 15.4375 13.0625C15.4375 18.3092 19.6908 22.5625 24.9375 22.5625Z" stroke="#679BC1" stroke-width="1.5" stroke-linecap="round" stroke-linejoin="round"/>
<path d="M31.6613 19.7867L18.2129 6.33828" stroke="#679BC1" stroke-width="1.5" stroke-linecap="round" stroke-linejoin="round"/>
<path d="M14.8438 23.1562L13.0625 24.9375" stroke="#679BC1" stroke-width="1.5" stroke-linecap="round" stroke-linejoin="round"/>
<path d="M15.5558 14.532L4.17063 30.0586C3.99948 30.2864 3.91715 30.5688 3.939 30.8529C3.96086 31.137 4.08541 31.4034 4.28938 31.6023L6.39719 33.7102C6.59615 33.9141 6.86258 34.0387 7.14668 34.0605C7.43078 34.0824 7.71312 34 7.94094 33.8289L23.4675 22.4438" stroke="#679BC1" stroke-width="1.5" stroke-linecap="round" stroke-linejoin="round"/>
</svg>
