<svg width="34" height="24" viewBox="0 0 34 24" fill="none" xmlns="http://www.w3.org/2000/svg">
<g id="Orion_code-window">
<path id="layer2" d="M1.36963 8.25V21H32.4634V8.25H1.36963ZM14.6068 16.7569C14.6993 16.8307 14.7706 16.9171 14.8165 17.0111C14.8624 17.1051 14.8819 17.2048 14.8739 17.3043C14.8659 17.4038 14.8306 17.5012 14.77 17.5907C14.7094 17.6802 14.6248 17.7601 14.521 17.8257C14.4173 17.8913 14.2965 17.9412 14.1658 17.9726C14.035 18.004 13.8969 18.0163 13.7596 18.0086C13.6222 18.001 13.4884 17.9736 13.3658 17.9281C13.2433 17.8825 13.1345 17.8198 13.0459 17.7435L8.82176 14.2448L13.0469 10.7573C13.1355 10.6805 13.2443 10.6174 13.3671 10.5716C13.4899 10.5258 13.6241 10.4982 13.7618 10.4904C13.8995 10.4827 14.038 10.4949 14.1691 10.5264C14.3002 10.558 14.4213 10.6081 14.5252 10.674C14.6291 10.7399 14.7138 10.8201 14.7742 10.91C14.8347 10.9999 14.8697 11.0976 14.8772 11.1974C14.8847 11.2972 14.8645 11.3971 14.8179 11.4912C14.7713 11.5853 14.6991 11.6717 14.6057 11.7454L11.5756 14.2463L14.6068 16.7569ZM20.8255 17.7435C20.7369 17.8198 20.6281 17.8825 20.5055 17.9281C20.383 17.9736 20.2491 18.001 20.1118 18.0086C19.9744 18.0163 19.8363 18.004 19.7056 17.9726C19.5749 17.9412 19.4541 17.8913 19.3503 17.8257C19.2466 17.7601 19.1619 17.6802 19.1014 17.5907C19.0408 17.5012 19.0055 17.4038 18.9975 17.3043C18.9895 17.2048 19.009 17.1051 19.0549 17.0111C19.1007 16.9171 19.172 16.8307 19.2646 16.7569L22.2957 14.2463L19.2656 11.7439C19.1722 11.6702 19.1001 11.5838 19.0535 11.4897C19.0068 11.3956 18.9867 11.2957 18.9942 11.1959C19.0017 11.0961 19.0367 10.9984 19.0971 10.9085C19.1576 10.8186 19.2423 10.7384 19.3462 10.6725C19.4501 10.6066 19.5711 10.5565 19.7022 10.5249C19.8333 10.4934 19.9718 10.4812 20.1095 10.4889C20.2473 10.4967 20.3815 10.5243 20.5042 10.5701C20.627 10.6159 20.7359 10.679 20.8245 10.7557L25.0496 14.2432L20.8255 17.7435Z" fill="#A13FB9"/>
<path id="layer1" d="M1.36963 3V6.75H32.4634V3H1.36963ZM4.479 5.625C4.27401 5.625 4.07362 5.58101 3.90318 5.4986C3.73273 5.41619 3.59989 5.29906 3.52144 5.16201C3.44299 5.02497 3.42247 4.87417 3.46246 4.72868C3.50245 4.5832 3.60117 4.44956 3.74612 4.34467C3.89107 4.23978 4.07575 4.16835 4.2768 4.13941C4.47785 4.11047 4.68625 4.12532 4.87564 4.18209C5.06503 4.23886 5.2269 4.33499 5.34079 4.45832C5.45468 4.58166 5.51546 4.72666 5.51546 4.875C5.51546 5.07391 5.40626 5.26468 5.21189 5.40533C5.01752 5.54598 4.75389 5.625 4.479 5.625ZM7.58838 5.625C7.38339 5.625 7.183 5.58101 7.01255 5.4986C6.84211 5.41619 6.70926 5.29906 6.63082 5.16201C6.55237 5.02497 6.53184 4.87417 6.57184 4.72868C6.61183 4.5832 6.71054 4.44956 6.85549 4.34467C7.00044 4.23978 7.18512 4.16835 7.38618 4.13941C7.58723 4.11047 7.79563 4.12532 7.98501 4.18209C8.1744 4.23886 8.33628 4.33499 8.45016 4.45832C8.56405 4.58166 8.62484 4.72666 8.62484 4.875C8.62484 5.07391 8.51564 5.26468 8.32127 5.40533C8.12689 5.54598 7.86327 5.625 7.58838 5.625ZM10.6978 5.625C10.4928 5.625 10.2924 5.58101 10.1219 5.4986C9.95148 5.41619 9.81864 5.29906 9.74019 5.16201C9.66174 5.02497 9.64122 4.87417 9.68121 4.72868C9.7212 4.5832 9.81992 4.44956 9.96487 4.34467C10.1098 4.23978 10.2945 4.16835 10.4956 4.13941C10.6966 4.11047 10.905 4.12532 11.0944 4.18209C11.2838 4.23886 11.4457 4.33499 11.5595 4.45832C11.6734 4.58166 11.7342 4.72666 11.7342 4.875C11.7342 5.07391 11.625 5.26468 11.4306 5.40533C11.2363 5.54598 10.9726 5.625 10.6978 5.625Z" fill="#A13FB9"/>
</g>
</svg>
