<svg width="34" height="24" viewBox="0 0 34 24" fill="none" xmlns="http://www.w3.org/2000/svg">
<g id="Orion_megaphone">
<path id="layer1" d="M29.354 7.875V2.625C24.7908 4.94934 19.385 6.25325 13.8071 6.375H9.6613V13.875C9.6613 16.1625 9.66129 19.65 15.5173 21.3375H15.88C16.1301 21.3448 16.3754 21.2863 16.5706 21.1729C16.7658 21.0595 16.8977 20.8989 16.9419 20.7206C16.9861 20.5423 16.9397 20.3585 16.8112 20.2031C16.6827 20.0476 16.4808 19.9311 16.2428 19.875C11.7342 18.6 11.7342 16.0875 11.7342 13.875H13.8071C19.4112 13.8857 24.8619 15.2005 29.354 17.625V12.375C30.1787 12.375 30.9695 12.1379 31.5527 11.716C32.1358 11.294 32.4634 10.7217 32.4634 10.125C32.4634 9.52826 32.1358 8.95597 31.5527 8.53401C30.9695 8.11205 30.1787 7.875 29.354 7.875ZM1.36963 8.625V11.625C1.36963 12.2217 1.69722 12.794 2.28034 13.216C2.86346 13.6379 3.65435 13.875 4.479 13.875H7.58838V6.375H4.479C3.65435 6.375 2.86346 6.61205 2.28034 7.03401C1.69722 7.45597 1.36963 8.02826 1.36963 8.625Z" fill="#5C50E4"/>
</g>
</svg>
