<svg width="34" height="24" viewBox="0 0 34 24" fill="none" xmlns="http://www.w3.org/2000/svg">
<g id="Orion_page">
<path id="layer2" d="M1.36963 8.25V21H32.4634V8.25H1.36963ZM17.953 18H7.58838C7.31349 18 7.04987 17.921 6.85549 17.7803C6.66112 17.6397 6.55192 17.4489 6.55192 17.25C6.55192 17.0511 6.66112 16.8603 6.85549 16.7197C7.04987 16.579 7.31349 16.5 7.58838 16.5H17.953C18.2278 16.5 18.4915 16.579 18.6859 16.7197C18.8802 16.8603 18.9894 17.0511 18.9894 17.25C18.9894 17.4489 18.8802 17.6397 18.6859 17.7803C18.4915 17.921 18.2278 18 17.953 18ZM26.2446 15H7.58838C7.31349 15 7.04987 14.921 6.85549 14.7803C6.66112 14.6397 6.55192 14.4489 6.55192 14.25C6.55192 14.0511 6.66112 13.8603 6.85549 13.7197C7.04987 13.579 7.31349 13.5 7.58838 13.5H26.2446C26.5195 13.5 26.7831 13.579 26.9775 13.7197C27.1719 13.8603 27.2811 14.0511 27.2811 14.25C27.2811 14.4489 27.1719 14.6397 26.9775 14.7803C26.7831 14.921 26.5195 15 26.2446 15ZM26.2446 12H7.58838C7.31349 12 7.04987 11.921 6.85549 11.7803C6.66112 11.6397 6.55192 11.4489 6.55192 11.25C6.55192 11.0511 6.66112 10.8603 6.85549 10.7197C7.04987 10.579 7.31349 10.5 7.58838 10.5H26.2446C26.5195 10.5 26.7831 10.579 26.9775 10.7197C27.1719 10.8603 27.2811 11.0511 27.2811 11.25C27.2811 11.4489 27.1719 11.6397 26.9775 11.7803C26.7831 11.921 26.5195 12 26.2446 12Z" fill="#FFA135"/>
<path id="layer1" d="M1.36963 3V6.75H32.4634V3H1.36963ZM4.479 5.625C4.27401 5.625 4.07362 5.58101 3.90318 5.4986C3.73273 5.41619 3.59989 5.29906 3.52144 5.16201C3.44299 5.02497 3.42247 4.87417 3.46246 4.72868C3.50245 4.5832 3.60117 4.44956 3.74612 4.34467C3.89107 4.23978 4.07575 4.16835 4.2768 4.13941C4.47785 4.11047 4.68625 4.12532 4.87564 4.18209C5.06503 4.23886 5.2269 4.33499 5.34079 4.45832C5.45468 4.58166 5.51546 4.72666 5.51546 4.875C5.51546 5.07391 5.40626 5.26468 5.21189 5.40533C5.01752 5.54598 4.75389 5.625 4.479 5.625ZM7.58838 5.625C7.38339 5.625 7.183 5.58101 7.01255 5.4986C6.84211 5.41619 6.70926 5.29906 6.63082 5.16201C6.55237 5.02497 6.53184 4.87417 6.57184 4.72868C6.61183 4.5832 6.71054 4.44956 6.85549 4.34467C7.00044 4.23978 7.18512 4.16835 7.38618 4.13941C7.58723 4.11047 7.79563 4.12532 7.98501 4.18209C8.1744 4.23886 8.33628 4.33499 8.45016 4.45832C8.56405 4.58166 8.62484 4.72666 8.62484 4.875C8.62484 5.07391 8.51564 5.26468 8.32127 5.40533C8.12689 5.54598 7.86327 5.625 7.58838 5.625ZM10.6978 5.625C10.4928 5.625 10.2924 5.58101 10.1219 5.4986C9.95148 5.41619 9.81864 5.29906 9.74019 5.16201C9.66174 5.02497 9.64122 4.87417 9.68121 4.72868C9.7212 4.5832 9.81992 4.44956 9.96487 4.34467C10.1098 4.23978 10.2945 4.16835 10.4956 4.13941C10.6966 4.11047 10.905 4.12532 11.0944 4.18209C11.2838 4.23886 11.4457 4.33499 11.5595 4.45832C11.6734 4.58166 11.7342 4.72666 11.7342 4.875C11.7342 5.07391 11.625 5.26468 11.4306 5.40533C11.2363 5.54598 10.9726 5.625 10.6978 5.625Z" fill="#FFA135"/>
</g>
</svg>
