<svg width="42" height="44" viewBox="0 0 42 44" fill="none" xmlns="http://www.w3.org/2000/svg">
<path d="M41.4288 37.5825L33.2497 29.1652C32.8805 28.7853 32.3801 28.5743 31.8551 28.5743H30.5179C32.7821 25.594 34.1275 21.8455 34.1275 17.7677C34.1275 8.06712 26.4898 0.207031 17.0637 0.207031C7.63767 0.207031 0 8.06712 0 17.7677C0 27.4683 7.63767 35.3284 17.0637 35.3284C21.0261 35.3284 24.6686 33.9438 27.5645 31.6136V32.9897C27.5645 33.5301 27.7696 34.0451 28.1388 34.425L36.3179 42.8423C37.089 43.6359 38.336 43.6359 39.099 42.8423L41.4206 40.453C42.1918 39.6594 42.1918 38.3761 41.4288 37.5825ZM17.0637 28.5743C11.2637 28.5743 6.56298 23.7451 6.56298 17.7677C6.56298 11.7988 11.2555 6.96113 17.0637 6.96113C22.8638 6.96113 27.5645 11.7903 27.5645 17.7677C27.5645 23.7366 22.872 28.5743 17.0637 28.5743Z" fill="#868181"/>
</svg>
